<svg xmlns="http://www.w3.org/2000/svg" xmlns:xlink="http://www.w3.org/1999/xlink" viewBox="0 0 389.49 211.01"><defs><style>.cls-1{fill:#231714;}.cls-2{fill:#b81d23;}.cls-3{fill:#fdfdfd;}.cls-4{fill:url(#未命名漸層_7);}.cls-5{fill:url(#未命名漸層_7-2);}.cls-6{fill:url(#未命名漸層_7-3);}.cls-7{fill:url(#未命名漸層_7-4);}.cls-8{fill:url(#未命名漸層_7-5);}.cls-9{fill:url(#未命名漸層_7-6);}</style><linearGradient id="未命名漸層_7" x1="64.79" y1="30.93" x2="324.63" y2="30.93" gradientUnits="userSpaceOnUse"><stop offset="0" stop-color="#fbc600"/><stop offset="1" stop-color="#ba1b22"/></linearGradient><linearGradient id="未命名漸層_7-2" x1="35.94" y1="34.9" x2="35.97" y2="34.9" xlink:href="#未命名漸層_7"/><linearGradient id="未命名漸層_7-3" x1="0" y1="73.51" x2="389.49" y2="73.51" xlink:href="#未命名漸層_7"/><linearGradient id="未命名漸層_7-4" x1="35.94" y1="34.89" x2="35.96" y2="34.89" xlink:href="#未命名漸層_7"/><linearGradient id="未命名漸層_7-5" x1="31.95" y1="54.48" x2="357.47" y2="54.48" xlink:href="#未命名漸層_7"/><linearGradient id="未命名漸層_7-6" x1="36.93" y1="37.88" x2="36.97" y2="37.88" xlink:href="#未命名漸層_7"/></defs><g id="圖層_2" data-name="圖層 2"><g id="圖層_1-2" data-name="圖層 1"><path class="cls-1" d="M137,185.69c-4.39-2.93-8.6-6.14-13.51-8.25a61.39,61.39,0,0,1-16.82-10.75c-3.16-2.83-6.52-5.42-9.79-8.12-.14-1.28.82-1,1.48-1,1.9,0,3.8,0,5.7,0,.7,0,1.77.51,1.94-.84,2.56-.15,3-2.34,3.83-4.07a3,3,0,0,0,.1-3.1c-1.56-3-2.76-6.06-6.73-7.23-2-.59-3.16,1.08-4.76.39-.51,1.38-2,1.2-2.91,1.37-3,.61-6,2.11-9.72,1.41,2.57-3,5.76-2.83,8.86-2.93.36-1.25,1.38-.74,2.18-.81l1-.11c0-.87,1.28-1,1.08-2,0-.67,0-1.33,0-2-.25-1.93-2.28-2.47-3.08-4l-1-.08-3,0c-1,.17-2,0-1.92-1.22s1.15-.77,1.73-.7c1.76.2,3.77-.87,5.25.91l1.94.13,2-.05c1.18-.66,1.39-2,2-3,0-1,.07-2.08.1-3.12-.84-3.69-4.6-6.88-8-6.83-.86,1.47-2.39,1.15-3.48.82s-.38-1.85-.66-2.8c-3-1.71-6.57-1.28-9.55-3a2.36,2.36,0,0,0-2.28.46c-1.8,1.2-1.23,2.85-1.07,4.38.23,2.32-.19,4-3,4.17-.3,0-.57.31-.88.37-2.72.6-5.05,2.43-8,2.5-3.19.08-4.13,2-2.51,4.85,2.41,4.25,7.11,4.79,11,3.72.54-.15,1-.84,1.2.17.13.53.29,1-.61,1.29-2.21.62-4.28,1.66-6.58,2-1.4.24-3.21.31-3.67,2.06-.57,2.12,1.65,5.33,3.86,5.93,1.29,0,2.58-.1,3.88-.12.55,0,1.19-.11,1.18.77,0,.71-.11,1.31-1,1.17a4,4,0,0,0-.5.08c-5.91,1.45-11.56,3.93-17.79,4.15-1.17,0-2.56,1-1.87,3.23,2.09,6.6,6.11,9.14,12.71,7.62a1.64,1.64,0,0,1,.49,0c0,.31,0,.62,0,.93-2.86,3.6-5.44,7.48-8.66,10.73-4.6,4.65-9,9.67-15.34,12.25-1,.41-2.09,1.22-1.83,2.49.22,1.08,1.33,1.28,2.34,1.69,2.25.92,4.3.12,6.46-.07,4.12-.37,7.65-1.69,10.48-4.9.7-.78,1.21-2.05,2.53-2.25a2.41,2.41,0,0,1,1.93-2c1.15-3,3.9-4.88,5.46-7.64.66-1.19,2.28,0,3.44-.25a1,1,0,0,0,.23.59h0c.27.3.77.26,1.21.29l2.66.19,1,.07c-.92,2.43-3.48,2.55-5.33,3.38-2.52,1.12-5,2.48-7.56,3.4.1.9-1.29,1-1.07,2,0,.67,0,1.34,0,2a17.55,17.55,0,0,0,4.21,3.05c1.2.77,2.14,2.08,3.78,2h3l1-.16,1.93.23c-.33,4.55-1,9.09,0,13.66.57,2.38,1.55,4.3,4,5.21a4.67,4.67,0,0,0,4.11,0c2.3-.9,3-2.77,3-5a4.27,4.27,0,0,0,.43-2.65c0-3.9,0-7.8,0-11.69,0-.9-.2-1.85.54-2.6,3.22-1.11,7-1.44,8.53-5.2a22.57,22.57,0,0,0,.83-3.31c-.75-.25-1.62-.37-1.53-1.49a2.52,2.52,0,0,1-1.9-2,.87.87,0,0,1-1-1c-1,.32-1.09-1.09-1.95-1l-2.05-.07c-.66-.09-1.65.68-1.92-.29-.31-1.13,1.29-.3,1.53-1.09,3.21-1.56,4.36-1.11,5.23,2,.54.37,1.48.38,1.3,1.41a2.49,2.49,0,0,1,1.94,2c.77,0,1,.4.93,1.08.3.07.61-.08.89.25a56.36,56.36,0,0,0,11,9.87c2.58,1.77,5.11,3.17,8.36,2.85a46.08,46.08,0,0,1,5-.08c4,0,7.55-1.38,11-3.15C137.91,188.41,138.34,186.57,137,185.69ZM87.8,164.2c-.15.62-.84.37-1.28.21-1-.39.09-.92,0-1.38a2.76,2.76,0,0,1-2.09-1.52c-2.8-.25-5.18.16-6,3.45-.32,1.32-1.32.33-2,.68.61-3.73,3.08-5.95,6.51-6,.77,0,1.92-.73,2,.88a2.74,2.74,0,0,1,1.92,2.12C88,162.62,88,163.53,87.8,164.2Z"/><path class="cls-1" d="M237.79,206.43c-3.28,1.64-6.92.86-10.29,1.84-1.24.36-2.67,0-4,.17-5.25.81-9.18-1.47-13-4.84-7.59-6.78-14.5-14.22-21.64-21.44-1.09-1.1-1.28-1.73-2.72,0-4.84,5.74-9.66,11.52-15.37,16.48a21,21,0,0,1-12.34,5.5,13.24,13.24,0,0,1-9.36-3.69c-1.4-1.23,0-2.58.9-2.75,9.8-1.82,14.79-9.59,20.63-16.32.76-.88,1.4-1.88,2.1-2.82.13-.81-.37-1-1-1.09-4.83.74-7.54-2.69-9.82-6.79a35.64,35.64,0,0,1-2-4.58c-.77-2,.29-3.43,2.53-3.63a31.59,31.59,0,0,0,12.93-4c1.14-.65,2.11-4.82,1.29-5.71s-1.77.13-2.7-.53c1.26-2.41,4.06-3.75,5.27-6.38.27-.58.81-1-.08-1.17-4.2-.83-6-4.4-8.09-7.38a14,14,0,0,1-2.41-5.64v-2c1.54-3.4,2.16-3.64,5.72-3.23,2.94.33,5.52-1.24,8.2-2.09,4.22-1.35,8.31-3.06,12.46-4.64,2.14-.82,4.33-1.55,6.37-2.56a4.82,4.82,0,0,1,5.43.25c2.27,1.47,4.51,2.77,6.19,5,3.89,5.12,1.1,10.12-3.33,12.15a136.6,136.6,0,0,1-16.18,6.26c-1,.32-3,.44-1.94,2.84.66,1.42-.92,2.38-1.95,3.25-1.5,1.26-.69,1.81.55,2.62,2.79,1.82,4.91-.3,7.13-1.17,3.26-1.29,6.26-3.28,9.56-4.42,2.51-.87,4.62,1.16,6.79,2.22,2.94,1.43,4.85,4,6.58,6.59,2,3.08-.6,8.91-4.43,9.85-2.07.5-4.11,1.2-6.3,1-5-.41-8.36,3.41-12.54,5.13-.66.28-.41,1.19.37,1.95,5.1,5,10.48,9.54,16,14a46.87,46.87,0,0,0,14.29,8c4.93,1.71,9,5,12.63,8.72C241.79,202.91,240.48,205.08,237.79,206.43Z"/><path class="cls-1" d="M330,131.33a6,6,0,0,1-2.31-2.23c-1.95-4.06-5-5.84-9.54-5.56-5.56.34-11,1.4-16.53,2.09-.59-1.27,1.06-3.11-1-4,0-1.38-1.33-1-2-1.36-2.92-1.42-5.91-2.8-9.32-2.54-1.9.15-3.6,2.45-3.07,4.21a19.13,19.13,0,0,1,.34,4.66c0,.65-.14,1-.89,1.14-3.7.94-7.37,2-11.06,3-.68-.05-1.23-.21-1.11-1.1.07-.59,0-1.11-.81-1.12-1.61-2.84-4.76-2.61-7.3-3.54-.44-.16-1.72.45-1.74,1.29,0,1.92-1,3.59-1.12,5.51-.13,2.47-1,4.85-1.58,7.27-.67,3.07-1.61,6.08-2.19,9.15-.73,3.82,2.42,5.49,4.6,7.75,2.95,3.07,5.44,1.3,7.13-1.31a14.06,14.06,0,0,0,2.19-8V135.91c.7.71,2,.62,1.92,1.73,3.09,2.09,6.35,2.88,9.86.9.24,1.28-.67,1.41-1,1.85-1.15,1.45-1.09,2.42.59,3.16,3,1.34,8.55-.5,10.66-3.07s2.54-6.74,7-7.43c4.8-.74,9.38-2.78,14.38-2.33.17,0,.32.27.58.51a122.11,122.11,0,0,1-32.19,19,13.62,13.62,0,0,0,4.62,1.22c2.48,0,3.92,1.85,5.21,3.21.87.92-1.54,2.12-2.25,3.36a6.49,6.49,0,0,1-.61,1.06c-.51.59-1.48,1.08-1.76.27-1-2.87-3.35-3.39-5.8-4.18a3.74,3.74,0,0,1-2.49-2.61c-.52-1.86-1.59-1.89-2.9-.43a3.55,3.55,0,0,0-.95,2.09c-.59,5,.48,9.39,4.68,12.64,1.11.86,1,1.59-.12,2.46-2.55,2-5,4.16-7.51,6.25-1.32.43-3-.84-4,1a5.78,5.78,0,0,0-2.15,7.42c.66,1.69,1.54,3.25,2.25,4.9a138.7,138.7,0,0,0,8,16.16c.91,1.53,1.51,3.61,3.92,3.6l2,0c.87.15,1.15-.68,1.39-1.11,1.43-2.56,3.76-2.21,5.92-1.76,4.15.85,8.33,1.39,12.52,1.94,4.36.57,6.73-1.33,8.15-5.09,1.35-1,1.65-2,0-3.08a2.65,2.65,0,0,0-2-2c0-.65-.05-1.3-.08-2,1.27-.61,1.34-2,2-3,2.52-4.08,4.78-8.34,8-12,1.6-1.3,1.74-2.62.06-4-1.76-2.89-4.56-4.5-7.42-6a6.79,6.79,0,0,0-6.18-.21c-3.92,1.52-7.79,3.16-12.18,3.52-3.17.26-6.37,1.47-9.53,2.34-2.66.73-5.42,2.34-8.84.82.92-.76,1.58-1.41,2.33-1.92,6.22-4.16,13.21-6.27,20.5-7.39,1.73-.26,3.32-.87,5-1.26a3.19,3.19,0,0,0,1.72-4.78c-.54-1-.67-2.15,0-2.76,1.75-1.65,2.79-4.12,5.75-4.46a3.07,3.07,0,0,0,3-2.38c.27-1.6-.59-2.46-1.59-3.41-1.92-1.83-4.24-3.08-7.12-4.81,2,.11,2.95-1.07,4.24-1,4.56.08,9-.73,13.57-1a15.11,15.11,0,0,0,5.19-1.12c2.52-1.11,2.83-3.67,3.46-5.88C332.92,132.87,331.34,132.15,330,131.33Zm-40.5,54.29c4.2-1.57,8.35-3.26,12.53-4.87.43-.16,1.05-.41,1.36.1a1.44,1.44,0,0,1-.1,1.17,97.86,97.86,0,0,1-5.06,9.29c-1.28,1.91-3.81,2.33-5.92,3.11-.95.35-2.14-.11-3.15.83-.39-.34-1.17-.69-1.35-1.24a16.59,16.59,0,0,0-1.11-2C284.42,187.61,284.53,187.48,289.49,185.62Z"/><path class="cls-1" d="M303.28,182a97.86,97.86,0,0,1-5.06,9.29c-1.28,1.91-3.81,2.33-5.92,3.11-.95.35-2.14-.11-3.15.83-.39-.34-1.17-.69-1.35-1.24a16.59,16.59,0,0,0-1.11-2c-2.27-4.36-2.16-4.49,2.8-6.35,4.2-1.57,8.35-3.26,12.53-4.87.43-.16,1.05-.41,1.36.1A1.44,1.44,0,0,1,303.28,182Z"/><path class="cls-2" d="M369.44,159.84v45.09c0,3.49,0,3.49-3.62,3.49-1.91,0-3.82-.07-5.73,0-1.69.07-2.46-.66-2.44-2.31,0-.41,0-.83,0-1.24V114.45c0-3.42.14-3.56,3.45-3.56,2.08,0,4.16.09,6.23,0,1.68-.11,2.15.55,2.13,2.14-.07,5.23,0,10.46,0,15.7Z"/><path class="cls-2" d="M20,159.84c0-15.45,0-30.89,0-46.34,0-1.73.14-2.88,2.38-2.67,1.3.12,1.78.58,1.77,1.78v.75q0,46.33,0,92.68c0,2-.64,2.47-2.55,2.44-2.19,0-1.6-1.46-1.6-2.55Q20,182.89,20,159.84Z"/><path class="cls-3" d="M303.28,182a97.86,97.86,0,0,1-5.06,9.29c-1.28,1.91-3.81,2.33-5.92,3.11-.95.35-2.14-.11-3.15.83-.39-.34-1.17-.69-1.35-1.24a16.59,16.59,0,0,0-1.11-2c-2.27-4.36-2.16-4.49,2.8-6.35,4.2-1.57,8.35-3.26,12.53-4.87.43-.16,1.05-.41,1.36.1A1.44,1.44,0,0,1,303.28,182Z"/><path class="cls-4" d="M65.85,14h0a13,13,0,0,0,3,7.89c0,.83,0,1.67,1,2A32.65,32.65,0,0,0,79.82,35c1.25,1.84,2.69,3.46,5,4,1.65,1.82,3.93,2.63,6,3.73,2.31,1.07,4.38,2.7,7,3.09,1.61.82,3.08,2,5,2,2.06,1,4.11,2,6.49,2.1h0a10.76,10.76,0,0,0,6.4,2c.34,1.14,1.26.88,2.09.87l1.82.15c.34,1.26,1.35.82,2.17.86,3,.75,5.88,1.83,9,2a20.27,20.27,0,0,0,7.83,1.13h0c.75,1.43,2.07.69,3.16.84,2.42-.26,4.56,1.37,7,1,3.06-.23,5.91,1.34,9,1l2,.16c1.84,1.7,4.06.66,6.1.85l4.94,0,6,0c2.29.58,4.56,1.33,7,.92l5.49,0,7.49,0h13.57c.66,0,1.33,0,1.56-.84h0l1.34,0,6.49-.08h0l3,0c1.42-.1,3,.73,4.16-.81h0l2.86-.14h0l2,0c1.72-.14,3.6.6,5.1-.86h0l1.4-.06c1.84-.28,3.9.79,5.53-.87l3.95-.21c2.9.16,5.57-1.34,8.48-1.17.19,0,.4-.45.6-.69h0c1.06,0,2.28.26,3.12-.18,1.88-1,4.28-.12,5.91-1.79a14.76,14.76,0,0,0,7.94-2h0c2.23.24,4.2-.73,6.08-1.61,1-.47,2.62.34,3.05-1.34h0a14.34,14.34,0,0,0,7.91-3l.85-.12c.83,0,1.7.14,2-1a22,22,0,0,0,8-4c.59,0,.82-.62,1.37-.85,4.27-1.76,7.51-4.91,10.58-8.25a35.16,35.16,0,0,0,7-9.09c1.43-2.72,3.13-5.38,3.06-8.65,1.83-1.79.68-4,.91-6-.13-1.07.67-2.44-1-3h0l-.06-1h0c0-1,.37-2-.47-2.95-.72,1.07-.42,2-.41,3,0,.65-.05,1.3-.08,2h0c-1.3.21-1,1.18-.95,2,0,.67,0,1.34-.05,2h0a1.93,1.93,0,0,0-.43,1.53c-.3.68-2.51.28-1.08,1.93-.26.72-2.46.42-1.07,2h0c-.42.53-1.77.15-1.41,1.43l-6.06,7c-3.94,3.07-7.72,6.34-11.89,9.1l-9,4.92-10,4.06-9,3-7,1.93a67.53,67.53,0,0,0-9,2,14.2,14.2,0,0,0-7.13,1.82h0l-3.86.19a31.45,31.45,0,0,1-6.48.93c-2.93-.49-5.66.68-8.49,1-1.57,0-3.14,0-4.71.1-1.17.05-2.51-.53-3.36.83h0l-1.92.08-4,0h0l-19,0-3,0h-16l-.46-.15h0a2,2,0,0,0-1.89-.94c-4.56,0-9.12.05-13.68.08l-1.93.05-5-.15-.82,0c-1.15-1.48-2.76-.68-4.17-.85l-1,0L146,51.78c-.74-1.43-2.07-.68-3.16-.84l-1.5,0-1,0a35.19,35.19,0,0,0-11-2c-1.23-1.38-2.89-.88-4.4-1-.36-1.12-1.27-.87-2.09-.86l-1.92-.13h0c-.34-1.14-1.26-.89-2.08-.88-1.69-.16-3.09-1.57-4.92-1.12-.32-1.15-1.25-.9-2.07-.89l-.94-.1h0c-1.78-1.23-3.61-2.31-5.92-2-.08-.55-.39-.75-1-.92-2-.62-4.06-1.36-6.08-2a13.1,13.1,0,0,0-6-3c-1.45-2.15-3.93-2.77-6-4-1.29-1.79-2.58-3.59-5-4h0a2.65,2.65,0,0,0-2.11-2c0-.62-.2-1.05-.93-1h0c-.38-.53.62-2.05-1.14-1.57h0a.47.47,0,0,0-.46,0h0c-.31-.34-.45-.87-1-.91h0l-.47-1h0c.12-1.2-.67-1.68-1.6-2h0l-.33-.8a2.42,2.42,0,0,0-2-2.61v-.05h0c0-.8.44-1.86-1-2-.14-.76.45-1.9-1-2,0-.73.21-1.52-.5-2.08h0L67.91,9c-.32-1,.77-2.49-1-3v0h0c0-1,0-2,0-3V1a.9.9,0,0,0-1.08-1c-.33,0-.72.14-.64.51,0,.2.48.31.74.45h0c0,.67,0,1.34,0,2h0c.36,1.22-.74,2-1,3l0,2h0C65.18,10,64,12.24,65.85,14Z"/><path class="cls-5" d="M35.94,34.9h0a0,0,0,0,0,0,0Z"/><path class="cls-6" d="M389.39,55.82h0c0-1.28,0-2.57-.05-3.85h0c.56-1.3-.65-2.07-.93-3.12.71-.05,1.06-.44.94-1.14,0-.2-.32-.54-.37-.52a2,2,0,0,0-1.54,1.68h0c0,2,0,4,0,6a8.14,8.14,0,0,0-2,5c0,.32,0,.64-.07.95-2.09,1.34-3.37,3.55-5.28,5.07-4.78,3.81-10.42,5.92-16.09,8-1.57.57-3.52.31-4.72,1.84-3.76-.08-7.2,1.45-10.81,2.17-.8,0-1.73-.31-2.05.85-3.79-.06-7.23,1.69-10.93,2.13-1.06.15-2.36-.55-3.06.86-5.41-.08-10.58,1.62-15.91,2.14-1.41.16-3-.61-4.15.85h0a.21.21,0,0,0-.34,0l-2.5.1-1,0c-1.73.17-3.62-.63-5.12.87h0c-2.22,0-4.44,0-6.66.13-1.27.05-2.67-.3-3.7.85l-9.41.12-7,0c-1,.26-2.44-.79-3.06.89l-1,.15h0l-5.93,0-6,0h0l-4,0c-1,.26-2.43-.79-3,.88l-2,.18h-1l-13.71.09c-.6,0-1.19,0-1.38.74h0l0,0-7.93.07-5,0-7,0H174.74l-5-.14c-.25-1-1.06-.86-1.78-.86H136.8l-2-.16c-1.41-1.87-3.37-.53-5-.88h0l-8,0h0l-5.92-.15c-.18-1-1-.92-1.71-.92-1.8,0-3.6,0-5.39.06l-5.9,0L96,86.7h0c-.28-.8-1-.79-1.63-.81L86,85.71h0a1.07,1.07,0,0,0-1.11-.77c-5.34.25-10.5-1.61-15.84-1.26h0c-.33-1.16-1.33-.75-2.08-.84-1.23-.15-2.5-.09-3.71-.32-3.76-.71-7.42-2-11.32-1.78-2.87-1.07-5.76-2.09-8.9-2-1.33-1.67-3.21-.79-4.85-1-.36-1.27-1.39-.81-2.22-.85l-1.5-.12a17.31,17.31,0,0,0-7.42-2c-.32-1.14-1.25-.9-2.07-.9L24,73.77c-.31-1.14-1.23-.92-2.05-.91l-3-1.07h0c-.29-1.08-1.18-1-2-1a55.09,55.09,0,0,0-7-5.08c0-1.25-.81-.93-1.53-.85L7,63.32c1.22-1,1-1.41-1-2.52l-.6-.48c-.15-.81-.3-1.62-.46-2.43h0c.08-1-.78-1.19-1.43-1.55-.17-.66-.34-1.33-.5-2,0-.83,0-1.67,0-2.5H3a.89.89,0,0,0-1-1H2c-.15-1.23.28-2.55-.69-3.74C1.73,49-.4,50.1.07,52h0c0,1.29,0,2.58,0,3.87,0,.82-.29,1.78.92,2l.16.94c.48,1.12.57,2.47,1.83,3.12h0c.09.49,0,1.08.28,1.44a39.39,39.39,0,0,0,9.51,9.29c1.8,1.22,3.42,2.89,5.75,3.2h0l1.51.92c.29,1.08,1.16,1,2,1h0c.3,1,1.14,1,2,1a33.42,33.42,0,0,0,10,4,29.34,29.34,0,0,0,10,3,53.26,53.26,0,0,0,10,2c2.49.88,5.14.86,7.68,1.39,3.08.65,6.2,1,9.29,1.57,4,.7,7.94,1.66,12,2,3,0,5.91,1.46,9,1a16.54,16.54,0,0,1,2.46.24,85.62,85.62,0,0,0,13.52,1.72l4.9.14h0c.33.95,1.16.8,1.88.81,2.4,0,4.81,0,7.21.06h1l2,.17c.15.88.81.91,1.49.9l5.67-.09h0l5.35,0,1.47.16c1,1.79,2.7.58,4,.87h0l6,0h5l13.9,0,4,.19c1.34,1.45,2.68,1.49,4,0l2-.16,4.5.07,8.49,0c2.49,1.73,5-.2,7.48,0l8.49-.07,9,0a39.8,39.8,0,0,0,7,.06l5,0c2.43.36,4.7-.39,7-1,2,0,4.08,0,6.11,0,.76,0,1.7.28,2-.86h0a10.88,10.88,0,0,0,3.37,0c4.19.39,8.37-.3,12.56-.16.65,0,.84-.35,1-.83l.92-.07,13.9,0c1.72,0,3.44.11,5.16.09.74,0,1.74.31,2-.92l2.78-.18c1.57,0,3.13.16,4.69.09.88,0,2.09.53,2.48-.91,1-.46,2.5.55,3.15-1h0c4.67.4,9.22-.56,13.81-1.13,1.73-.14,3.6.61,5.09-.88h0l2.89-.11c1.42-.18,3.05.68,4.2-.86h0c4.1.48,8-1.26,12-1.25.51,0,.64-.42.82-.77l2.91-.16c.81,0,1.82.42,2.19-.82h0c3.21.43,6.11-1.29,9.25-1.35.21,0,.4-.44.6-.69h0c4.57-.55,8.74-2.33,12.92-4.1A61.29,61.29,0,0,0,381,69.31c2.29-2,4.54-4.24,5.45-7.36,1.26-.67,1.39-2,1.83-3.14.05-.31.1-.63.16-.94,1.2-.28.9-1.23.91-2Z"/><path class="cls-7" d="M36,34.88h0v0Z"/><path class="cls-8" d="M32.83,38.9h0c.38,1-.5,2.45,1.08,3h0c1.51,5.11,4.79,8.9,9,12h0c.86,1.79,2.69,2.59,4.17,3.54,3.26,2.1,6.4,4.57,10.34,5.42a23.29,23.29,0,0,0,9.49,3.86c2.21,1.09,4.64,1.4,7,2,3,.68,5.87,1.87,9,2a75.46,75.46,0,0,0,11,2c2.06-.07,3.87,1.43,6,1,2.72-.09,5.24,1.47,8,1a64.11,64.11,0,0,0,13.89,1.16c1.47,1.57,3.38.59,5.07.83l5.86.14h0c.28,1,1.09.82,1.79.83,1.78,0,3.56,0,5.34,0l3,.1.81,0c.31.94,1.11.82,1.82.83,1.78,0,3.57,0,5.35,0h1l8,.08a1.09,1.09,0,0,0,1.07.81q4.54,0,9.09.1a.91.91,0,0,0,1-.85h.63c1.48,1.81,3.46.52,5.18.84h2l2,0,4,0,5,.15c.16.88.83.91,1.52.91h14c.69,0,1.36,0,1.52-.9l3-.15,3,0,3,.17a3.68,3.68,0,0,0,5,0h1c.68,1.33,1.35,1.31,2,0l-.05-.16c.83,0,1.87.46,2.24-.84h0l2.77-.11,8.83,0,7.42.08c.74,0,1.55.12,1.74-.92l1-.17a20.48,20.48,0,0,0,3.23,0c1.64-.25,3.5.7,4.91-.84h0l6.84-.16c2,0,4.12.34,6-.85,2.37,0,4.74-.06,7.1-.15.77,0,1.7.23,2.08-.83h0c3-.18,6,.54,8.79-1l3-.12c1.1-.16,2.44.61,3.19-.84h0c2-.25,4.23.67,6-1h0a34.43,34.43,0,0,0,11.76-2.11l.5,0,.5,0c.81,0,1.76.32,2.11-.86h0l1.88-.13c.81,0,1.8.37,2.12-.86,2.84.14,5.35-1,7.86-2.07,1.27.43,2.14-.55,3.1-1,2.67-1.22,5.64-1.9,7.88-4a40.14,40.14,0,0,0,12.6-8.9c2.78-2.91,5.47-5.91,6.41-10,1.56-.57.69-2,1.08-3,1.23-.29.81-1.26.86-2h0c0-1,0-2,0-2.93h0a6.29,6.29,0,0,1-1-4c-.11-.58.31-1.32-.58-1.79-.57.51-.36,1.19-.4,1.79h0v4h0c-1.35.17-.9,1.2-1,2h0l0,1c-.67,0-1,.35-.94,1h0l-.06,1.93h0c-1.72.38-.81,1.67-.9,2.61l-.48.5c-1.54-.34-1.73.58-1.65,1.76-.66,0-1.05.34-1,1.07h0a6.33,6.33,0,0,0-3,3c-1.19.21-1.66,1.33-2.49,2-2.88,2.24-6.4,3.23-9.48,5.06-2.71.83-5.51,1.47-8.11,2.56-1,.44-2.65-.37-3.12,1.32h0c-3.15-.21-5.77,1.67-8.74,2.17-.81,0-1.78-.35-2.12.85h0l-1.87.14c-.82.05-1.83-.41-2.18.84h0a32.06,32.06,0,0,0-10.79,2c-3.11-.49-5.95,1.08-9,1.12-4.47.79-9.06.73-13.48,1.92l-2.5.06c-3.72-.36-7.27,1.2-11,1h-7.93c-1.38.2-3-.89-4.08.84l-3,.17-9.53.1c-.67,0-1.31,0-1.64.76h0a14.82,14.82,0,0,0-4.31.07l-8.49.06h-3L188.21,72l-22.45-.15-2.5,0-9.33-.11h0c-.45-1-1.38-.74-2.17-.77-3.65-.11-7.3-.18-10.95-.26-.64-1.66-2-.64-3.07-.86h0l-5,0h-4l-6.88-.16c-1.48-1.59-3.38-.59-5.09-.84L112,68.74c-.24-.82-.92-.82-1.58-.84L104,67.74c-2.13-1.71-4.65-.66-7-1-.75-1.46-2.1-.69-3.2-.85l-.51,0c-2.44-.49-4.8-1.48-7.36-1.11h0a21.3,21.3,0,0,0-9-2c-.35-1.17-1.3-.85-2.12-.85l-.5,0c-1.48-.41-2.81-1.44-4.48-1.07-.35-1-1.18-.94-2-.88l-1-.1a18,18,0,0,0-6-2c-.28-1.16-1.21-1-2-1l-.82-.14h0a52.82,52.82,0,0,0-8-4.82c-1.74-.95-2.68-3.1-4.95-3.18h0c-.33-1.33-1.48-1.78-2.52-2.34a.68.68,0,0,1-.24.08h0L42,45.88c.18-1.78-1-2.65-2.29-3.48A2.15,2.15,0,0,0,38,39.85l0,0c-.33,1.46.41,2.17,1.73,2.47h0c-1.26,2.06.9,2.26,1.73,3.18l-1.19,1.18c-2.83-1-3.5-3.9-5.25-5.86.32-1.49-1.41-2.42-1.06-3.91-.43-1-.87-1.91-1.45-3.19a5.74,5.74,0,0,0-.46,3.1C32,37.64,31.62,38.61,32.83,38.9Z"/><path class="cls-9" d="M37,37.9v0h0a.06.06,0,0,0,0,0Z"/></g></g></svg>